<svg id="Layer_1" data-name="Layer 1"
    xmlns="http://www.w3.org/2000/svg" viewBox="0 0 1300 300">
    <path d="M 16.8 171.602 L 0 171.602 L 0 1.202 L 70.56 1.202 A 46.567 46.567 0 0 1 85.5 3.558 A 43.084 43.084 0 0 1 90.84 5.762 Q 100.08 10.322 106.8 18.122 Q 113.52 25.922 117.36 35.402 Q 121.2 44.882 121.2 54.722 Q 121.2 68.642 115.08 81.002 Q 108.96 93.362 97.92 101.042 A 42.902 42.902 0 0 1 77.002 108.496 A 54.098 54.098 0 0 1 72 108.722 L 16.8 108.722 L 16.8 171.602 Z M 16.8 16.082 L 16.8 93.842 L 71.28 93.842 A 30.935 30.935 0 0 0 81.245 92.284 A 27.252 27.252 0 0 0 88.8 88.322 A 36.523 36.523 0 0 0 100.192 74.199 A 42.691 42.691 0 0 0 100.32 73.922 A 45.282 45.282 0 0 0 104.396 55.366 A 51.869 51.869 0 0 0 104.4 54.722 Q 104.4 44.162 99.6 35.282 A 39.978 39.978 0 0 0 92.008 25.229 A 36.353 36.353 0 0 0 87 21.242 Q 79.2 16.082 69.84 16.082 L 16.8 16.082 Z" id="0" vector-effect="non-scaling-stroke"/>
    <path d="M 281.76 37.442 L 268.56 45.602 Q 263.04 34.322 254.64 27.722 Q 246.24 21.122 236.76 18.242 A 64.86 64.86 0 0 0 219.09 15.374 A 60.923 60.923 0 0 0 217.92 15.362 Q 202.56 15.362 190.8 21.482 Q 179.04 27.602 171 37.802 Q 162.96 48.002 158.88 60.602 Q 154.8 73.202 154.8 86.162 Q 154.8 100.322 159.6 113.282 Q 164.4 126.242 173.04 136.202 Q 181.68 146.162 193.32 152.042 Q 204.96 157.922 218.64 157.922 Q 228.24 157.922 238.32 154.562 Q 248.4 151.202 257.16 144.242 A 49.012 49.012 0 0 0 269.374 129.755 A 58.601 58.601 0 0 0 271.2 126.242 L 285.12 133.442 Q 279.84 146.162 268.8 155.042 Q 257.76 163.922 244.2 168.482 Q 230.64 173.042 217.68 173.042 Q 200.16 173.042 185.52 165.482 Q 170.88 157.922 160.2 145.322 Q 149.52 132.722 143.76 117.002 Q 138 101.282 138 85.202 Q 138 69.602 143.4 54.602 Q 148.8 39.602 159.12 27.242 Q 169.44 14.882 184.56 7.562 A 73.159 73.159 0 0 1 207.84 0.888 A 92.02 92.02 0 0 1 218.88 0.242 Q 241.68 0.242 257.88 10.682 A 66.482 66.482 0 0 1 275.307 26.694 A 61.701 61.701 0 0 1 281.76 37.442 Z" id="1" vector-effect="non-scaling-stroke"/>
    <path d="M 460.56 75.122 L 430.8 2.402 L 446.64 2.402 L 470.64 62.882 L 494.88 2.402 L 510.96 2.402 L 481.2 75.122 L 513.84 152.162 L 575.52 1.202 L 593.76 1.202 L 521.52 171.602 L 506.64 171.602 L 470.88 87.362 L 434.88 171.602 L 420.24 171.602 L 348.24 1.202 L 366.24 1.202 L 428.16 152.162 L 460.56 75.122 Z" id="3" vector-effect="non-scaling-stroke"/>
    <path d="M 659.47 170.129 A 77.716 77.716 0 0 0 680.16 172.802 Q 697.2 172.802 711.84 165.842 Q 726.48 158.882 737.28 146.762 Q 748.08 134.642 754.08 119.162 Q 760.08 103.682 760.08 86.642 Q 760.08 70.562 754.32 55.202 Q 748.56 39.842 738.12 27.362 Q 727.68 14.882 713.04 7.442 A 66.301 66.301 0 0 0 701.525 2.89 A 75.165 75.165 0 0 0 680.4 0.002 Q 663.36 0.002 648.72 7.082 Q 634.08 14.162 623.16 26.282 Q 612.24 38.402 606.24 53.882 Q 600.24 69.362 600.24 86.402 Q 600.24 102.722 606 118.202 Q 611.76 133.682 622.32 146.042 Q 632.88 158.402 647.52 165.602 A 67.683 67.683 0 0 0 659.47 170.129 Z M 617.04 86.402 Q 617.04 100.322 621.6 113.162 Q 626.16 126.002 634.56 135.962 Q 642.96 145.922 654.6 151.802 A 55.42 55.42 0 0 0 678.321 157.656 A 64.86 64.86 0 0 0 680.16 157.682 A 60.215 60.215 0 0 0 695.681 155.746 A 51.421 51.421 0 0 0 706.44 151.562 Q 718.08 145.442 726.36 135.242 Q 734.64 125.042 738.96 112.322 Q 743.28 99.602 743.28 86.402 Q 743.28 72.482 738.72 59.762 Q 734.16 47.042 725.64 36.962 Q 717.12 26.882 705.6 21.122 Q 694.08 15.362 680.16 15.362 A 59.55 59.55 0 0 0 663.635 17.59 A 52.178 52.178 0 0 0 654.12 21.362 Q 642.48 27.362 634.2 37.562 Q 625.92 47.762 621.48 60.482 Q 617.04 73.202 617.04 86.402 Z" id="4" vector-effect="non-scaling-stroke"/>
    <path d="M 808.56 171.602 L 791.76 171.602 L 791.76 1.202 L 863.76 1.202 A 46.454 46.454 0 0 1 877.423 3.166 A 41.943 41.943 0 0 1 883.92 5.762 Q 893.04 10.322 899.88 18.122 Q 906.72 25.922 910.44 35.402 Q 914.16 44.882 914.16 54.722 Q 914.16 66.962 909.48 77.762 Q 904.8 88.562 896.28 96.002 Q 887.76 103.442 876.24 105.842 L 918 171.602 L 899.04 171.602 L 858.96 108.722 L 808.56 108.722 L 808.56 171.602 Z M 808.56 16.082 L 808.56 93.842 L 864.24 93.842 A 30.935 30.935 0 0 0 874.205 92.284 A 27.252 27.252 0 0 0 881.76 88.322 A 36.126 36.126 0 0 0 892.757 74.914 A 42.711 42.711 0 0 0 893.28 73.802 Q 897.36 64.802 897.36 54.722 Q 897.36 44.402 892.68 35.642 Q 888 26.882 880.2 21.482 Q 872.4 16.082 862.8 16.082 L 808.56 16.082 Z" id="5" vector-effect="non-scaling-stroke"/>
    <path d="M 1063.68 171.602 L 948.48 171.602 L 948.48 1.202 L 965.28 1.202 L 965.28 156.722 L 1063.68 156.722 L 1063.68 171.602 Z" id="6" vector-effect="non-scaling-stroke"/>
    <path d="M 1146.24 171.602 L 1088.4 171.602 L 1088.4 1.202 L 1146.24 1.202 A 106.89 106.89 0 0 1 1166.054 2.942 Q 1178.191 5.232 1187.948 10.535 A 64.24 64.24 0 0 1 1191.48 12.602 Q 1209.6 24.002 1218.72 43.322 A 96.199 96.199 0 0 1 1227.513 77.401 A 115.537 115.537 0 0 1 1227.84 86.162 A 113.682 113.682 0 0 1 1225.688 108.808 A 85.482 85.482 0 0 1 1217.88 131.282 Q 1207.92 150.482 1189.56 161.042 A 78.34 78.34 0 0 1 1162.62 170.355 A 103.638 103.638 0 0 1 1146.24 171.602 Z M 1146.24 16.082 L 1105.2 16.082 L 1105.2 156.722 L 1146.24 156.722 Q 1167.36 156.722 1181.76 147.362 Q 1196.16 138.002 1203.6 122.042 A 79.531 79.531 0 0 0 1210.451 97.054 A 98.459 98.459 0 0 0 1211.04 86.162 Q 1211.04 65.762 1203.48 49.922 Q 1195.92 34.082 1181.52 25.082 A 57.553 57.553 0 0 0 1162.136 17.568 A 80.867 80.867 0 0 0 1146.24 16.082 Z" id="7" vector-effect="non-scaling-stroke"/>
</svg>